<svg xmlns="http://www.w3.org/2000/svg" width="252.29" height="47.523" viewBox="0 0 252.29 47.523">
  <g id="logo" transform="translate(-263.238 -267.171)">
    <g id="Group_14" data-name="Group 14" transform="translate(263.238 267.171)">
      <path id="Path_19" data-name="Path 19" d="M303.878,278.237l-18.651-10.768a2.226,2.226,0,0,0-2.226,0l-18.651,10.768a2.224,2.224,0,0,0-1.113,1.927V301.7a2.225,2.225,0,0,0,1.113,1.928L283,314.4a2.222,2.222,0,0,0,2.226,0l18.651-10.767a2.226,2.226,0,0,0,1.113-1.928V280.165A2.226,2.226,0,0,0,303.878,278.237Zm-36.189,3.213,16.425-9.483,16.424,9.483v18.965l-14.2,8.2v-7.992l10.208-5.893a2.226,2.226,0,1,0-2.226-3.855l-10.207,5.892-10.21-5.894a2.226,2.226,0,1,0-2.226,3.855h0l10.208,5.894v7.994l-14.2-8.2Z" transform="translate(-263.238 -267.171)" fill="#fff"/>
      <path id="Path_20" data-name="Path 20" d="M291.477,294.6a2.226,2.226,0,0,0,3.132.316l5.646-4.521a2.226,2.226,0,0,0-2.815-3.449l-5.645,4.522A2.226,2.226,0,0,0,291.477,294.6Z" transform="translate(-268.929 -271.126)" fill="#fff"/>
      <path id="Path_21" data-name="Path 21" d="M276.145,290.4l5.646,4.521a2.226,2.226,0,1,0,2.815-3.448l-5.646-4.522a2.226,2.226,0,0,0-2.815,3.449Z" transform="translate(-265.718 -271.126)" fill="#fff"/>
      <path id="Path_22" data-name="Path 22" d="M288.928,287.559a2.225,2.225,0,0,0,2.226-2.226v-5.745a2.226,2.226,0,1,0-4.452,0v5.745A2.226,2.226,0,0,0,288.928,287.559Z" transform="translate(-268.052 -269.262)" fill="#fff"/>
    </g>
    <g id="Group_16" data-name="Group 16" transform="translate(315.399 278.832)">
      <g id="Group_15" data-name="Group 15" transform="translate(0)">
        <path id="Path_23" data-name="Path 23" d="M328.863,281.842h14.8v2.965H331.812v6.512h11.559v2.934H331.812v7.4H343.78v2.843H328.863Z" transform="translate(-328.863 -281.842)" fill="#23130e"/>
        <path id="Path_24" data-name="Path 24" d="M351.817,281.842h2.861v3.607h-2.861Zm.029,5.655h2.8v17h-2.8Z" transform="translate(-333.572 -281.842)" fill="#23130e"/>
        <path id="Path_25" data-name="Path 25" d="M360.153,289.969l2.248-.146.234,1.548c.759-1.022,2.306-1.927,5.984-1.927,5.137,0,5.838,2.715,5.838,6.714v9.9h-2.832v-9.341c0-2.628-.233-4.466-3.911-4.466-4,0-4.7,2.014-4.7,4.817v8.99h-2.861Z" transform="translate(-335.283 -283.402)" fill="#23130e"/>
        <path id="Path_26" data-name="Path 26" d="M380.315,288.263h3.065v-1.138c0-3.211,1.11-5.283,5.167-5.283h1.868v2.481H388.9c-2.16,0-2.686,1.168-2.686,2.8v1.138h4.2v2.569h-4.2v13.662H383.38V290.832h-3.065Z" transform="translate(-339.419 -281.842)" fill="#23130e"/>
        <path id="Path_27" data-name="Path 27" d="M394.454,301.441c0-4.612,2.6-5.955,10.713-5.955h.876c-.059-2.335-.614-3.386-4.058-3.386a9.239,9.239,0,0,0-4.788,1.372l-1.489-2.218a12.794,12.794,0,0,1,6.539-1.81c5.546,0,6.539,1.9,6.539,6.51v5.78c0,1.576.117,1.81,1.606,1.81v2.481a5.529,5.529,0,0,1-1.168.059c-1.78,0-2.365-.5-2.773-1.839-.963,1.372-2.715,2.1-6.189,2.1C395.592,306.345,394.454,304.186,394.454,301.441Zm11.589-2.539v-.992h-.73c-6.685,0-8.144.758-8.144,3.327,0,1.722.788,2.656,3.561,2.656C404.5,303.893,406.043,302.376,406.043,298.9Z" transform="translate(-342.32 -283.402)" fill="#23130e"/>
        <path id="Path_28" data-name="Path 28" d="M415.976,297.91c0-5.021,1.664-8.466,8.027-8.466a7.67,7.67,0,0,1,6.043,2.423l-2.073,1.956a5.112,5.112,0,0,0-3.97-1.635c-4,0-5.166,2.16-5.166,5.78s1.11,5.838,5.166,5.838a5.592,5.592,0,0,0,4.116-1.664l1.9,1.81a8.019,8.019,0,0,1-6.13,2.393C417.669,306.345,415.976,302.93,415.976,297.91Z" transform="translate(-346.736 -283.402)" fill="#23130e"/>
        <path id="Path_29" data-name="Path 29" d="M436.395,281.842h2.831v7.823c.642-.934,2.19-1.78,5.635-1.78,5.137,0,5.838,2.715,5.838,6.714v9.9h-2.832v-9.341c0-2.628-.234-4.466-3.911-4.466-4,0-4.7,2.014-4.7,4.817v8.99h-2.861Z" transform="translate(-350.925 -281.842)" fill="#23130e"/>
        <path id="Path_30" data-name="Path 30" d="M466.656,282.393H472.9l5.868,15.169,5.867-15.169h6.217v22.214h-4.67v-14.84l-5.809,14.84h-3.619l-5.781-14.75v14.75h-4.32Z" transform="translate(-357.134 -281.955)" fill="#23130e"/>
        <path id="Path_31" data-name="Path 31" d="M500.407,296.317c0-5.546,2.423-8.611,8.641-8.611s8.611,3.065,8.611,8.611-2.394,8.611-8.611,8.611S500.407,301.863,500.407,296.317Zm3.241-13.924h4.145v3.969h-4.145Zm9.428,14.041c0-2.8-.875-4.554-4.028-4.554-3.182,0-4.028,1.751-4.028,4.554s.846,4.583,4.028,4.583C512.2,301.017,513.076,299.236,513.076,296.434Zm-2.8-14.041h4.116v3.969h-4.116Z" transform="translate(-364.059 -281.955)" fill="#23130e"/>
        <path id="Path_32" data-name="Path 32" d="M528.909,303.064l-.9,1.606-3.065-.321V281.842h4.554v7.327c.9-1.051,2.656-1.576,5.4-1.576,5.693,0,7.094,3.853,7.094,8.611s-1.518,8.553-7.356,8.553C531.478,304.757,529.785,304.115,528.909,303.064Zm8.436-6.685c0-2.656-.583-4.612-3.59-4.612-3.153,0-4.233,1.459-4.233,4.612s.905,4.525,4.233,4.525C536.7,300.9,537.346,299.006,537.346,296.379Z" transform="translate(-369.092 -281.842)" fill="#23130e"/>
        <path id="Path_33" data-name="Path 33" d="M548.958,297.688c0-4.612,1.518-8.611,8.583-8.611,7.269,0,7.5,4.845,7.356,10.363H553.4c.262,1.985,1.226,3.152,4.174,3.152a7.982,7.982,0,0,0,5.2-1.518l2.306,2.977a11.276,11.276,0,0,1-7.5,2.248C550.417,306.3,548.958,302.388,548.958,297.688Zm4.438-1.518h7.327c-.117-1.9-.5-3.269-3.328-3.269S553.628,294.156,553.4,296.17Z" transform="translate(-374.02 -283.326)" fill="#23130e"/>
        <path id="Path_34" data-name="Path 34" d="M572.168,299.5v-17.66h4.554v17.106c0,1.343.262,1.722,1.634,1.722h.555v3.766a18.258,18.258,0,0,1-2.218.117C573.716,304.553,572.168,303.414,572.168,299.5Z" transform="translate(-378.782 -281.842)" fill="#23130e"/>
      </g>
    </g>
  </g>
</svg>
