<svg id="Component_16_1" data-name="Component 16 – 1" xmlns="http://www.w3.org/2000/svg" width="129.713" height="24.434" viewBox="0 0 129.713 24.434">
  <g id="Group_14" data-name="Group 14">
    <path id="Path_19" data-name="Path 19" d="M284.133,272.861l-9.589-5.536a1.145,1.145,0,0,0-1.144,0l-9.589,5.536a1.144,1.144,0,0,0-.572.991v11.073a1.144,1.144,0,0,0,.572.991l9.589,5.536a1.143,1.143,0,0,0,1.144,0l9.589-5.536a1.145,1.145,0,0,0,.572-.991V273.852A1.145,1.145,0,0,0,284.133,272.861Zm-18.606,1.652,8.445-4.876,8.444,4.876v9.751l-7.3,4.215v-4.109l5.248-3.03a1.144,1.144,0,1,0-1.144-1.982l-5.248,3.029-5.249-3.031a1.144,1.144,0,1,0-1.144,1.982h0l5.248,3.03v4.11l-7.3-4.215Z" transform="translate(-263.238 -267.171)" fill="#febc12"/>
    <path id="Path_20" data-name="Path 20" d="M291.233,290.642a1.144,1.144,0,0,0,1.61.163l2.9-2.324a1.144,1.144,0,0,0-1.447-1.773l-2.9,2.325A1.144,1.144,0,0,0,291.233,290.642Z" transform="translate(-279.64 -278.571)" fill="#febc12"/>
    <path id="Path_21" data-name="Path 21" d="M275.747,288.48l2.9,2.324a1.144,1.144,0,0,0,1.447-1.773l-2.9-2.325a1.144,1.144,0,0,0-1.447,1.773Z" transform="translate(-270.387 -278.571)" fill="#febc12"/>
    <path id="Path_22" data-name="Path 22" d="M287.847,282.6a1.144,1.144,0,0,0,1.144-1.144v-2.954a1.144,1.144,0,1,0-2.289,0v2.954A1.144,1.144,0,0,0,287.847,282.6Z" transform="translate(-277.113 -273.197)" fill="#febc12"/>
  </g>
  <g id="Group_16" data-name="Group 16" transform="translate(26.817 5.994)">
    <g id="Group_15" data-name="Group 15" transform="translate(0)">
      <path id="Path_23" data-name="Path 23" d="M328.863,281.842h7.609v1.524h-6.093v3.348h5.943v1.509h-5.943v3.8h6.153v1.462h-7.669Z" transform="translate(-328.863 -281.842)" fill="#23130e"/>
      <path id="Path_24" data-name="Path 24" d="M351.817,281.842h1.471V283.7h-1.471Zm.015,2.908h1.441v8.739h-1.441Z" transform="translate(-342.437 -281.842)" fill="#23130e"/>
      <path id="Path_25" data-name="Path 25" d="M360.153,289.714l1.156-.075.12.8c.39-.526,1.185-.991,3.077-.991,2.641,0,3,1.4,3,3.452v5.088h-1.456v-4.8c0-1.351-.12-2.3-2.011-2.3-2.056,0-2.416,1.036-2.416,2.476v4.622h-1.471Z" transform="translate(-347.366 -286.337)" fill="#23130e"/>
      <path id="Path_26" data-name="Path 26" d="M380.315,285.144h1.576v-.585c0-1.651.57-2.716,2.657-2.716h.96v1.275h-.78c-1.111,0-1.381.6-1.381,1.441v.585h2.161v1.321h-2.161v7.024h-1.456v-7.024h-1.576Z" transform="translate(-359.289 -281.842)" fill="#23130e"/>
      <path id="Path_27" data-name="Path 27" d="M394.454,295.612c0-2.371,1.336-3.062,5.508-3.062h.45c-.03-1.2-.315-1.741-2.086-1.741a4.75,4.75,0,0,0-2.462.705l-.765-1.141a6.578,6.578,0,0,1,3.362-.931c2.852,0,3.362.975,3.362,3.347v2.972c0,.81.06.931.826.931v1.275a2.84,2.84,0,0,1-.6.03c-.915,0-1.216-.255-1.426-.946-.5.705-1.4,1.08-3.182,1.08C395.039,298.134,394.454,297.023,394.454,295.612Zm5.959-1.306v-.51h-.376c-3.437,0-4.187.39-4.187,1.711,0,.886.405,1.366,1.831,1.366C399.617,296.873,400.413,296.093,400.413,294.307Z" transform="translate(-367.65 -286.337)" fill="#23130e"/>
      <path id="Path_28" data-name="Path 28" d="M415.976,293.8c0-2.581.855-4.353,4.127-4.353a3.943,3.943,0,0,1,3.107,1.246l-1.066,1.006a2.628,2.628,0,0,0-2.041-.841c-2.056,0-2.656,1.111-2.656,2.972s.57,3,2.656,3a2.875,2.875,0,0,0,2.116-.855l.975.931a4.123,4.123,0,0,1-3.152,1.23C416.846,298.134,415.976,296.378,415.976,293.8Z" transform="translate(-380.377 -286.337)" fill="#23130e"/>
      <path id="Path_29" data-name="Path 29" d="M436.395,281.842h1.456v4.022c.33-.48,1.126-.915,2.9-.915,2.641,0,3,1.4,3,3.452v5.088h-1.456v-4.8c0-1.351-.12-2.3-2.011-2.3-2.056,0-2.416,1.036-2.416,2.476v4.622h-1.471Z" transform="translate(-392.451 -281.842)" fill="#23130e"/>
      <path id="Path_30" data-name="Path 30" d="M466.656,282.393h3.212l3.017,7.8,3.017-7.8h3.2v11.421h-2.4v-7.63l-2.987,7.63h-1.861l-2.972-7.583v7.583h-2.221Z" transform="translate(-410.346 -282.168)" fill="#23130e"/>
      <path id="Path_31" data-name="Path 31" d="M500.407,289.552c0-2.852,1.246-4.427,4.443-4.427s4.427,1.576,4.427,4.427-1.231,4.427-4.427,4.427S500.407,292.4,500.407,289.552Zm1.666-7.159H504.2v2.041h-2.131Zm4.848,7.219c0-1.441-.45-2.341-2.071-2.341s-2.071.9-2.071,2.341.435,2.356,2.071,2.356S506.921,291.053,506.921,289.612Zm-1.441-7.219H507.6v2.041H505.48Z" transform="translate(-430.304 -282.168)" fill="#23130e"/>
      <path id="Path_32" data-name="Path 32" d="M526.981,292.753l-.465.826-1.576-.165V281.842h2.341v3.767a3.58,3.58,0,0,1,2.776-.81c2.927,0,3.647,1.981,3.647,4.427s-.781,4.4-3.782,4.4C528.3,293.624,527.431,293.293,526.981,292.753Zm4.337-3.437c0-1.366-.3-2.371-1.846-2.371-1.621,0-2.176.75-2.176,2.371s.465,2.327,2.176,2.327C530.988,291.642,531.318,290.667,531.318,289.316Z" transform="translate(-444.812 -281.842)" fill="#23130e"/>
      <path id="Path_33" data-name="Path 33" d="M548.958,293.5c0-2.371.781-4.427,4.413-4.427,3.737,0,3.857,2.491,3.782,5.328H551.24c.135,1.02.63,1.621,2.146,1.621a4.1,4.1,0,0,0,2.672-.781l1.185,1.531a5.8,5.8,0,0,1-3.857,1.156C549.708,297.932,548.958,295.921,548.958,293.5Zm2.281-.781h3.767c-.06-.975-.255-1.681-1.711-1.681S551.359,291.688,551.24,292.724Z" transform="translate(-459.015 -286.12)" fill="#23130e"/>
      <path id="Path_34" data-name="Path 34" d="M572.168,290.922v-9.08h2.342v8.795c0,.691.135.885.84.885h.285v1.936a9.386,9.386,0,0,1-1.141.06C572.964,293.519,572.168,292.933,572.168,290.922Z" transform="translate(-472.74 -281.842)" fill="#23130e"/>
    </g>
  </g>
</svg>
