<svg xmlns="http://www.w3.org/2000/svg" width="260.348" height="49.042" viewBox="0 0 260.348 49.042">
  <g id="logo-primary" transform="translate(-263.238 -267.171)">
    <g id="Group_14" data-name="Group 14" transform="translate(263.238 267.171)">
      <path id="Path_19" data-name="Path 19" d="M305.176,278.591l-19.246-11.112a2.3,2.3,0,0,0-2.3,0l-19.246,11.112a2.3,2.3,0,0,0-1.148,1.989V302.8a2.3,2.3,0,0,0,1.148,1.989L283.633,315.9a2.293,2.293,0,0,0,2.3,0l19.246-11.111a2.3,2.3,0,0,0,1.148-1.989V280.58A2.3,2.3,0,0,0,305.176,278.591Zm-37.344,3.315,16.95-9.786,16.949,9.786v19.571l-14.652,8.46V301.69l10.534-6.081a2.3,2.3,0,1,0-2.3-3.978l-10.533,6.08-10.536-6.083a2.3,2.3,0,0,0-2.3,3.978h0l10.534,6.082v8.249l-14.652-8.46Z" transform="translate(-263.238 -267.171)" fill="#fdbb11"/>
      <path id="Path_20" data-name="Path 20" d="M291.493,294.864a2.3,2.3,0,0,0,3.232.326l5.826-4.665a2.3,2.3,0,0,0-2.905-3.559l-5.825,4.666A2.3,2.3,0,0,0,291.493,294.864Z" transform="translate(-268.225 -270.637)" fill="#fdbb11"/>
      <path id="Path_21" data-name="Path 21" d="M276.171,290.525,282,295.191a2.3,2.3,0,1,0,2.905-3.558l-5.826-4.666a2.3,2.3,0,0,0-2.905,3.559Z" transform="translate(-265.411 -270.637)" fill="#fdbb11"/>
      <path id="Path_22" data-name="Path 22" d="M289,287.884a2.3,2.3,0,0,0,2.3-2.3v-5.928a2.3,2.3,0,1,0-4.594,0v5.928A2.3,2.3,0,0,0,289,287.884Z" transform="translate(-267.456 -269.003)" fill="#fdbb11"/>
    </g>
    <g id="Group_16" data-name="Group 16" transform="translate(317.065 279.204)">
      <g id="Group_15" data-name="Group 15" transform="translate(0)">
        <path id="Path_23" data-name="Path 23" d="M328.863,281.842h15.272V284.9H331.906v6.72h11.928v3.028H331.906v7.634h12.35v2.934H328.863Z" transform="translate(-328.863 -281.842)" fill="#23130e"/>
        <path id="Path_24" data-name="Path 24" d="M351.817,281.842h2.952v3.722h-2.952Zm.03,5.836h2.892v17.539h-2.892Z" transform="translate(-332.99 -281.842)" fill="#23130e"/>
        <path id="Path_25" data-name="Path 25" d="M360.153,289.986l2.32-.151.241,1.6c.783-1.055,2.379-1.988,6.175-1.988,5.3,0,6.024,2.8,6.024,6.928v10.212h-2.922v-9.639c0-2.712-.24-4.609-4.036-4.609-4.126,0-4.849,2.078-4.849,4.97v9.277h-2.953Z" transform="translate(-334.488 -283.209)" fill="#23130e"/>
        <path id="Path_26" data-name="Path 26" d="M380.315,288.469h3.163v-1.175c0-3.314,1.145-5.452,5.332-5.452h1.927v2.56h-1.566c-2.229,0-2.772,1.2-2.772,2.892v1.175h4.337v2.651H386.4v14.1h-2.922v-14.1h-3.163Z" transform="translate(-338.113 -281.842)" fill="#23130e"/>
        <path id="Path_27" data-name="Path 27" d="M394.454,301.824c0-4.759,2.681-6.145,11.056-6.145h.9c-.061-2.41-.633-3.494-4.187-3.494a9.534,9.534,0,0,0-4.941,1.416l-1.536-2.289a13.2,13.2,0,0,1,6.748-1.868c5.723,0,6.748,1.958,6.748,6.718v5.965c0,1.626.121,1.868,1.657,1.868v2.56a5.707,5.707,0,0,1-1.2.061c-1.837,0-2.44-.512-2.862-1.9-.994,1.416-2.8,2.169-6.386,2.169C395.628,306.885,394.454,304.657,394.454,301.824Zm11.959-2.621V298.18h-.754c-6.9,0-8.4.782-8.4,3.433,0,1.777.813,2.741,3.675,2.741C404.817,304.355,406.413,302.789,406.413,299.2Z" transform="translate(-340.655 -283.209)" fill="#23130e"/>
        <path id="Path_28" data-name="Path 28" d="M415.976,298.18c0-5.181,1.717-8.736,8.283-8.736a7.915,7.915,0,0,1,6.236,2.5l-2.139,2.019a5.275,5.275,0,0,0-4.1-1.687c-4.126,0-5.331,2.229-5.331,5.965s1.145,6.024,5.331,6.024a5.771,5.771,0,0,0,4.248-1.717l1.958,1.868a8.275,8.275,0,0,1-6.326,2.47C417.723,306.885,415.976,303.361,415.976,298.18Z" transform="translate(-344.525 -283.209)" fill="#23130e"/>
        <path id="Path_29" data-name="Path 29" d="M436.395,281.842h2.922v8.073c.663-.964,2.26-1.837,5.814-1.837,5.3,0,6.024,2.8,6.024,6.928v10.212h-2.922v-9.639c0-2.712-.241-4.609-4.036-4.609-4.127,0-4.85,2.078-4.85,4.97v9.277h-2.952Z" transform="translate(-348.195 -281.842)" fill="#23130e"/>
        <path id="Path_30" data-name="Path 30" d="M466.656,282.393H473.1l6.056,15.654,6.055-15.654h6.416v22.923h-4.82V290l-5.995,15.313h-3.734L471.114,290.1v15.221h-4.458Z" transform="translate(-353.636 -281.941)" fill="#23130e"/>
        <path id="Path_31" data-name="Path 31" d="M500.407,296.762c0-5.723,2.5-8.886,8.917-8.886s8.886,3.163,8.886,8.886-2.471,8.886-8.886,8.886S500.407,302.485,500.407,296.762Zm3.344-14.369h4.277v4.1h-4.277Zm9.729,14.489c0-2.892-.9-4.7-4.157-4.7-3.283,0-4.157,1.807-4.157,4.7s.874,4.729,4.157,4.729C512.577,301.611,513.48,299.774,513.48,296.882Zm-2.891-14.489h4.247v4.1h-4.247Z" transform="translate(-359.704 -281.941)" fill="#23130e"/>
        <path id="Path_32" data-name="Path 32" d="M529.036,303.742,528.1,305.4l-3.163-.331V281.842h4.7V289.4c.933-1.084,2.741-1.627,5.573-1.627,5.874,0,7.32,3.976,7.32,8.886s-1.567,8.826-7.591,8.826C531.687,305.489,529.94,304.826,529.036,303.742Zm8.706-6.9c0-2.741-.6-4.759-3.7-4.759-3.254,0-4.368,1.506-4.368,4.759s.934,4.67,4.368,4.67C537.079,301.512,537.742,299.555,537.742,296.843Z" transform="translate(-364.115 -281.842)" fill="#23130e"/>
        <path id="Path_33" data-name="Path 33" d="M548.958,297.963c0-4.76,1.567-8.886,8.857-8.886,7.5,0,7.741,5,7.591,10.694H553.537c.271,2.048,1.265,3.253,4.307,3.253a8.237,8.237,0,0,0,5.363-1.567l2.379,3.073a11.636,11.636,0,0,1-7.742,2.32C550.464,306.849,548.958,302.813,548.958,297.963Zm4.579-1.567H561.1c-.121-1.958-.512-3.374-3.434-3.374S553.777,294.318,553.537,296.4Z" transform="translate(-368.433 -283.143)" fill="#23130e"/>
        <path id="Path_34" data-name="Path 34" d="M572.168,300.066V281.842h4.7v17.652c0,1.386.271,1.777,1.686,1.777h.573v3.886a18.839,18.839,0,0,1-2.289.121C573.765,305.278,572.168,304.1,572.168,300.066Z" transform="translate(-372.605 -281.842)" fill="#23130e"/>
      </g>
    </g>
  </g>
</svg>
